<?xml version="1.0" encoding="UTF-8"?>
<svg xmlns="http://www.w3.org/2000/svg" xmlns:xlink="http://www.w3.org/1999/xlink" width="100pt" height="100pt" viewBox="0 0 101 101" version="1.1">
<g id="surface11992">
<path style="fill:none;stroke-width:1;stroke-linecap:round;stroke-linejoin:miter;stroke:rgb(0%,0%,100%);stroke-opacity:1;stroke-miterlimit:10;" d="M 100.5 90.5 C 100.5 95.5 95.5 100.5 90.5 100.5 C 84.5 100.5 80.5 95.5 80.5 90.5 C 80.5 84.5 84.5 80.5 90.5 80.5 C 95.5 80.5 100.5 84.5 100.5 90.5 Z M 100.5 90.5 "/>
<path style="fill:none;stroke-width:1;stroke-linecap:round;stroke-linejoin:miter;stroke:rgb(0%,0%,100%);stroke-opacity:1;stroke-miterlimit:10;" d="M 80.5 90.5 C 80.5 95.5 75.5 100.5 70.5 100.5 C 64.5 100.5 60.5 95.5 60.5 90.5 C 60.5 84.5 64.5 80.5 70.5 80.5 C 75.5 80.5 80.5 84.5 80.5 90.5 Z M 80.5 90.5 "/>
<path style="fill:none;stroke-width:1;stroke-linecap:round;stroke-linejoin:miter;stroke:rgb(0%,0%,100%);stroke-opacity:1;stroke-miterlimit:10;" d="M 60.5 90.5 C 60.5 95.5 55.5 100.5 50.5 100.5 C 44.5 100.5 40.5 95.5 40.5 90.5 C 40.5 84.5 44.5 80.5 50.5 80.5 C 55.5 80.5 60.5 84.5 60.5 90.5 Z M 60.5 90.5 "/>
<path style="fill:none;stroke-width:1;stroke-linecap:round;stroke-linejoin:miter;stroke:rgb(0%,0%,100%);stroke-opacity:1;stroke-miterlimit:10;" d="M 40.5 90.5 C 40.5 95.5 35.5 100.5 30.5 100.5 C 24.5 100.5 20.5 95.5 20.5 90.5 C 20.5 84.5 24.5 80.5 30.5 80.5 C 35.5 80.5 40.5 84.5 40.5 90.5 Z M 40.5 90.5 "/>
<path style="fill:none;stroke-width:1;stroke-linecap:round;stroke-linejoin:miter;stroke:rgb(0%,0%,100%);stroke-opacity:1;stroke-miterlimit:10;" d="M 20.5 90.5 C 20.5 95.5 15.5 100.5 9.5 100.5 C 4.5 100.5 -0.5 95.5 0.5 90.5 C 0.5 84.5 4.5 80.5 10.5 80.5 C 15.5 80.5 20.5 84.5 20.5 90.5 Z M 20.5 90.5 "/>
<path style="fill:none;stroke-width:1;stroke-linecap:round;stroke-linejoin:miter;stroke:rgb(0%,0%,100%);stroke-opacity:1;stroke-miterlimit:10;" d="M 90.5 70.5 C 90.5 75.5 85.5 80.5 80.5 80.5 C 74.5 80.5 70.5 75.5 70.5 70.5 C 70.5 64.5 74.5 60.5 80.5 60.5 C 85.5 60.5 90.5 64.5 90.5 70.5 Z M 90.5 70.5 "/>
<path style="fill:none;stroke-width:1;stroke-linecap:round;stroke-linejoin:miter;stroke:rgb(0%,0%,100%);stroke-opacity:1;stroke-miterlimit:10;" d="M 70.5 70.5 C 70.5 75.5 65.5 80.5 60.5 80.5 C 54.5 80.5 50.5 75.5 50.5 70.5 C 50.5 64.5 54.5 60.5 60.5 60.5 C 65.5 60.5 70.5 64.5 70.5 70.5 Z M 70.5 70.5 "/>
<path style="fill:none;stroke-width:1;stroke-linecap:round;stroke-linejoin:miter;stroke:rgb(0%,0%,100%);stroke-opacity:1;stroke-miterlimit:10;" d="M 50.5 70.5 C 50.5 75.5 45.5 80.5 40.5 80.5 C 34.5 80.5 30.5 75.5 30.5 70.5 C 30.5 64.5 34.5 60.5 40.5 60.5 C 45.5 60.5 50.5 64.5 50.5 70.5 Z M 50.5 70.5 "/>
<path style="fill:none;stroke-width:1;stroke-linecap:round;stroke-linejoin:miter;stroke:rgb(0%,0%,100%);stroke-opacity:1;stroke-miterlimit:10;" d="M 30.5 70.5 C 30.5 75.5 25.5 80.5 20.5 80.5 C 14.5 80.5 9.5 75.5 10.5 70.5 C 10.5 64.5 14.5 60.5 20.5 60.5 C 25.5 60.5 30.5 64.5 30.5 70.5 Z M 30.5 70.5 "/>
<path style="fill:none;stroke-width:1;stroke-linecap:round;stroke-linejoin:miter;stroke:rgb(0%,0%,100%);stroke-opacity:1;stroke-miterlimit:10;" d="M 80.5 50.5 C 80.5 55.5 75.5 60.5 70.5 60.5 C 64.5 60.5 60.5 55.5 60.5 50.5 C 60.5 44.5 64.5 40.5 70.5 40.5 C 75.5 40.5 80.5 44.5 80.5 50.5 Z M 80.5 50.5 "/>
<path style="fill:none;stroke-width:1;stroke-linecap:round;stroke-linejoin:miter;stroke:rgb(0%,0%,100%);stroke-opacity:1;stroke-miterlimit:10;" d="M 60.5 50.5 C 60.5 55.5 55.5 60.5 50.5 60.5 C 44.5 60.5 40.5 55.5 40.5 50.5 C 40.5 44.5 44.5 40.5 50.5 40.5 C 55.5 40.5 60.5 44.5 60.5 50.5 Z M 60.5 50.5 "/>
<path style="fill:none;stroke-width:1;stroke-linecap:round;stroke-linejoin:miter;stroke:rgb(0%,0%,100%);stroke-opacity:1;stroke-miterlimit:10;" d="M 40.5 50.5 C 40.5 55.5 35.5 60.5 30.5 60.5 C 24.5 60.5 20.5 55.5 20.5 50.5 C 20.5 44.5 24.5 40.5 30.5 40.5 C 35.5 40.5 40.5 44.5 40.5 50.5 Z M 40.5 50.5 "/>
<path style="fill:none;stroke-width:1;stroke-linecap:round;stroke-linejoin:miter;stroke:rgb(0%,0%,100%);stroke-opacity:1;stroke-miterlimit:10;" d="M 70.5 30.5 C 70.5 35.5 65.5 40.5 60.5 40.5 C 54.5 40.5 50.5 35.5 50.5 30.5 C 50.5 24.5 54.5 20.5 60.5 20.5 C 65.5 20.5 70.5 24.5 70.5 30.5 Z M 70.5 30.5 "/>
<path style="fill:none;stroke-width:1;stroke-linecap:round;stroke-linejoin:miter;stroke:rgb(0%,0%,100%);stroke-opacity:1;stroke-miterlimit:10;" d="M 50.5 30.5 C 50.5 35.5 45.5 40.5 40.5 40.5 C 34.5 40.5 30.5 35.5 30.5 30.5 C 30.5 24.5 34.5 20.5 40.5 20.5 C 45.5 20.5 50.5 24.5 50.5 30.5 Z M 50.5 30.5 "/>
<path style="fill:none;stroke-width:1;stroke-linecap:round;stroke-linejoin:miter;stroke:rgb(0%,0%,100%);stroke-opacity:1;stroke-miterlimit:10;" d="M 60.5 10.5 C 60.5 15.5 55.5 20.5 50.5 20.5 C 44.5 20.5 40.5 15.5 40.5 9.5 C 40.5 4.5 44.5 0.5 50.5 0.5 C 55.5 0.5 60.5 4.5 60.5 10.5 Z M 60.5 10.5 "/>
</g>
</svg>
