<?xml version="1.0" encoding="UTF-8"?>
<svg xmlns="http://www.w3.org/2000/svg" xmlns:xlink="http://www.w3.org/1999/xlink" width="100pt" height="300pt" viewBox="0 0 100 300" version="1.1">
<g id="surface2382">
<path style=" stroke:none;fill-rule:nonzero;fill:rgb(0%,100%,0%);fill-opacity:1;" d="M 0 200 C 0 200 100 200 100 200 C 100 200 100 300 100 300 C 100 300 0 300 0 300 C 0 300 0 200 0 200 Z M 0 200 "/>
<path style=" stroke:none;fill-rule:nonzero;fill:rgb(0%,0%,100%);fill-opacity:1;" d="M 0 100 C 0 100 100 100 100 100 C 100 100 100 200 100 200 C 100 200 0 200 0 200 C 0 200 0 100 0 100 Z M 0 100 "/>
<path style=" stroke:none;fill-rule:nonzero;fill:rgb(100%,0%,0%);fill-opacity:1;" d="M 0 0 C 0 0 100 0 100 0 C 100 0 100 100 100 100 C 100 100 0 100 0 100 C 0 100 0 0 0 0 Z M 0 0 "/>
</g>
</svg>
