<?xml version="1.0" encoding="UTF-8"?>
<svg xmlns="http://www.w3.org/2000/svg" xmlns:xlink="http://www.w3.org/1999/xlink" width="113pt" height="113pt" viewBox="0 0 113 113" version="1.1">
<g id="surface5087">
<path style=" stroke:none;fill-rule:nonzero;fill:rgb(100%,0%,0%);fill-opacity:1;" d="M 56.570312 0 C 56.570312 0 113.136719 56.570312 113.136719 56.570312 C 113.136719 56.570312 56.570312 113.136719 56.570312 113.136719 C 56.570312 113.136719 0 56.570312 0 56.570312 C 0 56.570312 56.570312 0 56.570312 0 Z M 56.570312 0 "/>
<path style=" stroke:none;fill-rule:nonzero;fill:rgb(0%,0%,100%);fill-opacity:1;" d="M 56.570312 14.140625 C 56.570312 14.140625 98.996094 56.570312 98.996094 56.570312 C 98.996094 56.570312 56.570312 98.996094 56.570312 98.996094 C 56.570312 98.996094 14.140625 56.570312 14.140625 56.570312 C 14.140625 56.570312 56.570312 14.140625 56.570312 14.140625 Z M 56.570312 14.140625 "/>
<path style=" stroke:none;fill-rule:nonzero;fill:rgb(0%,100%,0%);fill-opacity:1;" d="M 56.570312 28.285156 C 56.570312 28.285156 84.851562 56.570312 84.851562 56.570312 C 84.851562 56.570312 56.570312 84.851562 56.570312 84.851562 C 56.570312 84.851562 28.285156 56.570312 28.285156 56.570312 C 28.285156 56.570312 56.570312 28.285156 56.570312 28.285156 Z M 56.570312 28.285156 "/>
<path style=" stroke:none;fill-rule:nonzero;fill:rgb(0%,0%,0%);fill-opacity:1;" d="M 56.570312 42.425781 C 56.570312 42.425781 70.710938 56.570312 70.710938 56.570312 C 70.710938 56.570312 56.570312 70.710938 56.570312 70.710938 C 56.570312 70.710938 42.425781 56.570312 42.425781 56.570312 C 42.425781 56.570312 56.570312 42.425781 56.570312 42.425781 Z M 56.570312 42.425781 "/>
</g>
</svg>
