<?xml version="1.0" encoding="UTF-8"?>
<svg xmlns="http://www.w3.org/2000/svg" xmlns:xlink="http://www.w3.org/1999/xlink" width="240pt" height="240pt" viewBox="0 0 241 241" version="1.1">
<g id="surface11777">
<path style="fill:none;stroke-width:1;stroke-linecap:round;stroke-linejoin:miter;stroke:rgb(0%,100%,0%);stroke-opacity:1;stroke-miterlimit:10;" d="M 240.5 210.5 C 240.5 226.5 226.5 240.5 210.5 240.5 C 193.5 240.5 180.5 226.5 180.5 210.5 C 180.5 193.5 193.5 180.5 210.5 180.5 C 226.5 180.5 240.5 193.5 240.5 210.5 Z M 240.5 210.5 "/>
<path style="fill:none;stroke-width:1;stroke-linecap:round;stroke-linejoin:miter;stroke:rgb(0%,100%,0%);stroke-opacity:1;stroke-miterlimit:10;" d="M 180.5 210.5 C 180.5 226.5 166.5 240.5 150.5 240.5 C 133.5 240.5 120.5 226.5 120.5 210.5 C 120.5 193.5 133.5 180.5 150.5 180.5 C 166.5 180.5 180.5 193.5 180.5 210.5 Z M 180.5 210.5 "/>
<path style="fill:none;stroke-width:1;stroke-linecap:round;stroke-linejoin:miter;stroke:rgb(0%,100%,0%);stroke-opacity:1;stroke-miterlimit:10;" d="M 120.5 210.5 C 120.5 226.5 106.5 240.5 90.5 240.5 C 73.5 240.5 59.5 226.5 60.5 210.5 C 60.5 193.5 73.5 180.5 90.5 180.5 C 106.5 180.5 120.5 193.5 120.5 210.5 Z M 120.5 210.5 "/>
<path style="fill:none;stroke-width:1;stroke-linecap:round;stroke-linejoin:miter;stroke:rgb(0%,100%,0%);stroke-opacity:1;stroke-miterlimit:10;" d="M 60.5 210.5 C 60.5 226.5 46.5 240.5 29.5 240.5 C 13.5 240.5 -0.5 226.5 0.5 210.5 C 0.5 193.5 13.5 180.5 30.5 180.5 C 46.5 180.5 60.5 193.5 60.5 210.5 Z M 60.5 210.5 "/>
<path style="fill:none;stroke-width:1;stroke-linecap:round;stroke-linejoin:miter;stroke:rgb(0%,100%,0%);stroke-opacity:1;stroke-miterlimit:10;" d="M 240.5 150.5 C 240.5 166.5 226.5 180.5 210.5 180.5 C 193.5 180.5 180.5 166.5 180.5 150.5 C 180.5 133.5 193.5 120.5 210.5 120.5 C 226.5 120.5 240.5 133.5 240.5 150.5 Z M 240.5 150.5 "/>
<path style="fill:none;stroke-width:1;stroke-linecap:round;stroke-linejoin:miter;stroke:rgb(0%,100%,0%);stroke-opacity:1;stroke-miterlimit:10;" d="M 180.5 150.5 C 180.5 166.5 166.5 180.5 150.5 180.5 C 133.5 180.5 120.5 166.5 120.5 150.5 C 120.5 133.5 133.5 120.5 150.5 120.5 C 166.5 120.5 180.5 133.5 180.5 150.5 Z M 180.5 150.5 "/>
<path style="fill:none;stroke-width:1;stroke-linecap:round;stroke-linejoin:miter;stroke:rgb(0%,100%,0%);stroke-opacity:1;stroke-miterlimit:10;" d="M 120.5 150.5 C 120.5 166.5 106.5 180.5 90.5 180.5 C 73.5 180.5 59.5 166.5 60.5 150.5 C 60.5 133.5 73.5 120.5 90.5 120.5 C 106.5 120.5 120.5 133.5 120.5 150.5 Z M 120.5 150.5 "/>
<path style="fill:none;stroke-width:1;stroke-linecap:round;stroke-linejoin:miter;stroke:rgb(0%,100%,0%);stroke-opacity:1;stroke-miterlimit:10;" d="M 60.5 150.5 C 60.5 166.5 46.5 180.5 29.5 180.5 C 13.5 180.5 -0.5 166.5 0.5 150.5 C 0.5 133.5 13.5 120.5 30.5 120.5 C 46.5 120.5 60.5 133.5 60.5 150.5 Z M 60.5 150.5 "/>
<path style="fill:none;stroke-width:1;stroke-linecap:round;stroke-linejoin:miter;stroke:rgb(0%,100%,0%);stroke-opacity:1;stroke-miterlimit:10;" d="M 240.5 90.5 C 240.5 106.5 226.5 120.5 210.5 120.5 C 193.5 120.5 180.5 106.5 180.5 90.5 C 180.5 73.5 193.5 60.5 210.5 60.5 C 226.5 60.5 240.5 73.5 240.5 90.5 Z M 240.5 90.5 "/>
<path style="fill:none;stroke-width:1;stroke-linecap:round;stroke-linejoin:miter;stroke:rgb(0%,100%,0%);stroke-opacity:1;stroke-miterlimit:10;" d="M 180.5 90.5 C 180.5 106.5 166.5 120.5 150.5 120.5 C 133.5 120.5 120.5 106.5 120.5 90.5 C 120.5 73.5 133.5 60.5 150.5 60.5 C 166.5 60.5 180.5 73.5 180.5 90.5 Z M 180.5 90.5 "/>
<path style="fill:none;stroke-width:1;stroke-linecap:round;stroke-linejoin:miter;stroke:rgb(0%,100%,0%);stroke-opacity:1;stroke-miterlimit:10;" d="M 120.5 90.5 C 120.5 106.5 106.5 120.5 90.5 120.5 C 73.5 120.5 59.5 106.5 60.5 90.5 C 60.5 73.5 73.5 60.5 90.5 60.5 C 106.5 60.5 120.5 73.5 120.5 90.5 Z M 120.5 90.5 "/>
<path style="fill:none;stroke-width:1;stroke-linecap:round;stroke-linejoin:miter;stroke:rgb(0%,100%,0%);stroke-opacity:1;stroke-miterlimit:10;" d="M 60.5 90.5 C 60.5 106.5 46.5 120.5 29.5 120.5 C 13.5 120.5 -0.5 106.5 0.5 90.5 C 0.5 73.5 13.5 60.5 30.5 60.5 C 46.5 60.5 60.5 73.5 60.5 90.5 Z M 60.5 90.5 "/>
<path style="fill:none;stroke-width:1;stroke-linecap:round;stroke-linejoin:miter;stroke:rgb(0%,100%,0%);stroke-opacity:1;stroke-miterlimit:10;" d="M 240.5 30.5 C 240.5 46.5 226.5 60.5 210.5 60.5 C 193.5 60.5 180.5 46.5 180.5 29.5 C 180.5 13.5 193.5 0.5 210.5 0.5 C 226.5 0.5 240.5 13.5 240.5 30.5 Z M 240.5 30.5 "/>
<path style="fill:none;stroke-width:1;stroke-linecap:round;stroke-linejoin:miter;stroke:rgb(0%,100%,0%);stroke-opacity:1;stroke-miterlimit:10;" d="M 180.5 30.5 C 180.5 46.5 166.5 60.5 150.5 60.5 C 133.5 60.5 120.5 46.5 120.5 29.5 C 120.5 13.5 133.5 0.5 150.5 0.5 C 166.5 0.5 180.5 13.5 180.5 30.5 Z M 180.5 30.5 "/>
<path style="fill:none;stroke-width:1;stroke-linecap:round;stroke-linejoin:miter;stroke:rgb(0%,100%,0%);stroke-opacity:1;stroke-miterlimit:10;" d="M 120.5 30.5 C 120.5 46.5 106.5 60.5 90.5 60.5 C 73.5 60.5 59.5 46.5 60.5 29.5 C 60.5 13.5 73.5 0.5 90.5 0.5 C 106.5 0.5 120.5 13.5 120.5 30.5 Z M 120.5 30.5 "/>
<path style="fill:none;stroke-width:1;stroke-linecap:round;stroke-linejoin:miter;stroke:rgb(0%,100%,0%);stroke-opacity:1;stroke-miterlimit:10;" d="M 60.5 30.5 C 60.5 46.5 46.5 60.5 29.5 60.5 C 13.5 60.5 -0.5 46.5 0.5 29.5 C 0.5 13.5 13.5 0.5 30.5 0.5 C 46.5 0.5 60.5 13.5 60.5 30.5 Z M 60.5 30.5 "/>
</g>
</svg>
