<?xml version="1.0" encoding="UTF-8"?>
<svg xmlns="http://www.w3.org/2000/svg" xmlns:xlink="http://www.w3.org/1999/xlink" width="200pt" height="200pt" viewBox="0 0 201 201" version="1.1">
<g id="surface1348">
<path style="fill:none;stroke-width:1;stroke-linecap:round;stroke-linejoin:miter;stroke:rgb(62.745098%,12.54902%,94.117647%);stroke-opacity:1;stroke-miterlimit:10;" d="M 200.5 100.5 C 200.5 155.5 155.5 200.5 99.5 200.5 C 44.5 200.5 -0.5 155.5 0.5 99.5 C 0.5 44.5 44.5 0.5 100.5 0.5 C 155.5 0.5 200.5 44.5 200.5 100.5 Z M 200.5 100.5 "/>
<path style="fill:none;stroke-width:1;stroke-linecap:round;stroke-linejoin:miter;stroke:rgb(62.745098%,12.54902%,94.117647%);stroke-opacity:1;stroke-miterlimit:10;" d="M 175.5 100.5 C 175.5 141.5 141.5 175.5 99.5 175.5 C 58.5 175.5 24.5 141.5 25.5 99.5 C 25.5 58.5 58.5 25.5 100.5 25.5 C 141.5 25.5 175.5 58.5 175.5 100.5 Z M 175.5 100.5 "/>
<path style="fill:none;stroke-width:1;stroke-linecap:round;stroke-linejoin:miter;stroke:rgb(62.745098%,12.54902%,94.117647%);stroke-opacity:1;stroke-miterlimit:10;" d="M 150.5 100.5 C 150.5 127.5 127.5 150.5 99.5 150.5 C 72.5 150.5 49.5 127.5 50.5 100.5 L 50.5 99.5 C 50.5 72.5 72.5 50.5 100.5 50.5 C 127.5 50.5 150.5 72.5 150.5 100.5 Z M 150.5 100.5 "/>
<path style="fill:none;stroke-width:1;stroke-linecap:round;stroke-linejoin:miter;stroke:rgb(62.745098%,12.54902%,94.117647%);stroke-opacity:1;stroke-miterlimit:10;" d="M 125.5 100.5 C 125.5 113.5 113.5 125.5 100.5 125.5 C 86.5 125.5 75.5 113.5 75.5 100.5 C 75.5 86.5 86.5 75.5 100.5 75.5 C 113.5 75.5 125.5 86.5 125.5 100.5 Z M 125.5 100.5 "/>
<path style="fill:none;stroke-width:1;stroke-linecap:round;stroke-linejoin:miter;stroke:rgb(62.745098%,12.54902%,94.117647%);stroke-opacity:1;stroke-miterlimit:10;" d="M 100.5 100.5 Z M 100.5 100.5 "/>
</g>
</svg>
