<?xml version="1.0" encoding="UTF-8"?>
<svg xmlns="http://www.w3.org/2000/svg" xmlns:xlink="http://www.w3.org/1999/xlink" width="80pt" height="80pt" viewBox="0 0 82 82" version="1.1">
<g id="surface2830">
<path style="fill:none;stroke-width:1;stroke-linecap:round;stroke-linejoin:miter;stroke:rgb(93.333333%,50.980392%,93.333333%);stroke-opacity:1;stroke-miterlimit:10;" d="M 80.5 40.5 C 80.5 62.5 62.5 80.5 39.5 80.5 C 17.5 80.5 -0.5 62.5 0.5 39.5 C 0.5 17.5 17.5 0.5 40.5 0.5 C 62.5 0.5 80.5 17.5 80.5 40.5 Z M 80.5 40.5 "/>
<path style="fill:none;stroke-width:1;stroke-linecap:round;stroke-linejoin:miter;stroke:rgb(93.333333%,50.980392%,93.333333%);stroke-opacity:1;stroke-miterlimit:10;" d="M 70.5 40.5 C 70.5 56.5 56.5 70.5 39.5 70.5 C 23.5 70.5 9.5 56.5 10.5 40.5 L 10.5 39.5 C 10.5 23.5 23.5 10.5 40.5 10.5 C 56.5 10.5 70.5 23.5 70.5 40.5 Z M 70.5 40.5 "/>
<path style="fill:none;stroke-width:1;stroke-linecap:round;stroke-linejoin:miter;stroke:rgb(93.333333%,50.980392%,93.333333%);stroke-opacity:1;stroke-miterlimit:10;" d="M 60.5 40.5 C 60.5 51.5 51.5 60.5 40.5 60.5 C 28.5 60.5 19.5 51.5 20.5 40.5 C 20.5 28.5 28.5 20.5 40.5 20.5 C 51.5 20.5 60.5 28.5 60.5 40.5 Z M 60.5 40.5 "/>
<path style="fill:none;stroke-width:1;stroke-linecap:round;stroke-linejoin:miter;stroke:rgb(93.333333%,50.980392%,93.333333%);stroke-opacity:1;stroke-miterlimit:10;" d="M 50.5 40.5 C 50.5 45.5 45.5 50.5 40.5 50.5 C 34.5 50.5 30.5 45.5 30.5 40.5 C 30.5 34.5 34.5 30.5 40.5 30.5 C 45.5 30.5 50.5 34.5 50.5 40.5 Z M 50.5 40.5 "/>
<path style="fill:none;stroke-width:1;stroke-linecap:round;stroke-linejoin:miter;stroke:rgb(93.333333%,50.980392%,93.333333%);stroke-opacity:1;stroke-miterlimit:10;" d="M 40.5 40.5 Z M 40.5 40.5 "/>
</g>
</svg>
