<?xml version="1.0" encoding="UTF-8"?>
<svg xmlns="http://www.w3.org/2000/svg" xmlns:xlink="http://www.w3.org/1999/xlink" width="100pt" height="260pt" viewBox="0 0 100 260" version="1.1">
<g id="surface6172">
<path style=" stroke:none;fill-rule:nonzero;fill:rgb(0%,0%,100%);fill-opacity:1;" d="M 25 259.808594 C 25 259.808594 75 259.808594 75 259.808594 C 75 259.808594 100 216.507812 100 216.507812 C 100 216.507812 75 173.207031 75 173.207031 C 75 173.207031 25 173.207031 25 173.207031 C 25 173.207031 0 216.507812 0 216.507812 C 0 216.507812 25 259.808594 25 259.808594 Z M 25 259.808594 "/>
<path style=" stroke:none;fill-rule:nonzero;fill:rgb(0%,100%,0%);fill-opacity:1;" d="M 25 173.207031 C 25 173.207031 75 173.207031 75 173.207031 C 75 173.207031 100 129.902344 100 129.902344 C 100 129.902344 75 86.601562 75 86.601562 C 75 86.601562 25 86.601562 25 86.601562 C 25 86.601562 0 129.902344 0 129.902344 C 0 129.902344 25 173.207031 25 173.207031 Z M 25 173.207031 "/>
<path style=" stroke:none;fill-rule:nonzero;fill:rgb(100%,0%,0%);fill-opacity:1;" d="M 25 86.601562 C 25 86.601562 75 86.601562 75 86.601562 C 75 86.601562 100 43.300781 100 43.300781 C 100 43.300781 75 0 75 0 C 75 0 25 0 25 0 C 25 0 0 43.300781 0 43.300781 C 0 43.300781 25 86.601562 25 86.601562 Z M 25 86.601562 "/>
</g>
</svg>
