<?xml version="1.0" encoding="UTF-8"?>
<svg xmlns="http://www.w3.org/2000/svg" xmlns:xlink="http://www.w3.org/1999/xlink" width="200pt" height="120pt" viewBox="0 0 200 120" version="1.1">
<g id="surface6187">
<path style="fill:none;stroke-width:1;stroke-linecap:round;stroke-linejoin:miter;stroke:rgb(0%,0%,0%);stroke-opacity:1;stroke-miterlimit:10;" d="M 0.5 0.5 C 0.5 0.5 200.5 0.5 200.5 0.5 C 200.5 0.5 200.5 120.5 200.5 120.5 C 200.5 120.5 0.5 120.5 0.5 120.5 C 0.5 120.5 0.5 0.5 0.5 0.5 Z M 0.5 0.5 "/>
<path style=" stroke:none;fill-rule:nonzero;fill:rgb(100%,100%,100%);fill-opacity:1;" d="M 0 0 C 0 0 200 0 200 0 C 200 0 200 120 200 120 C 200 120 0 120 0 120 C 0 120 0 0 0 0 Z M 0 0 "/>
<path style=" stroke:none;fill-rule:nonzero;fill:rgb(52.941176%,80.784314%,98.039216%);fill-opacity:1;" d="M 0 20 C 0 20 200 20 200 20 C 200 20 200 100 200 100 C 200 100 0 100 0 100 C 0 100 0 20 0 20 Z M 0 20 "/>
<path style=" stroke:none;fill-rule:nonzero;fill:rgb(100%,100%,100%);fill-opacity:1;" d="M 0 40 C 0 40 200 40 200 40 C 200 40 200 80 200 80 C 200 80 0 80 0 80 C 0 80 0 40 0 40 Z M 0 40 "/>
<path style=" stroke:none;fill-rule:nonzero;fill:rgb(100%,0%,0%);fill-opacity:1;" d="M 45.125 58.804688 C 45.125 58.804688 42.125 50 42.125 50 C 42.125 50 39.125 58.804688 39.125 58.804688 C 39.125 58.804688 30 57 30 57 C 30 57 36.125 64 36.125 64 C 36.125 64 30 71 30 71 C 30 71 39.125 69.195312 39.125 69.195312 C 39.125 69.195312 42.125 78 42.125 78 C 42.125 78 45.125 69.195312 45.125 69.195312 C 45.125 69.195312 54.25 71 54.25 71 C 54.25 71 48.125 64 48.125 64 C 48.125 64 54.25 57 54.25 57 C 54.25 57 45.125 58.804688 45.125 58.804688 Z M 45.125 58.804688 "/>
<path style=" stroke:none;fill-rule:nonzero;fill:rgb(100%,0%,0%);fill-opacity:1;" d="M 85.125 58.804688 C 85.125 58.804688 82.125 50 82.125 50 C 82.125 50 79.125 58.804688 79.125 58.804688 C 79.125 58.804688 70 57 70 57 C 70 57 76.125 64 76.125 64 C 76.125 64 70 71 70 71 C 70 71 79.125 69.195312 79.125 69.195312 C 79.125 69.195312 82.125 78 82.125 78 C 82.125 78 85.125 69.195312 85.125 69.195312 C 85.125 69.195312 94.25 71 94.25 71 C 94.25 71 88.125 64 88.125 64 C 88.125 64 94.25 57 94.25 57 C 94.25 57 85.125 58.804688 85.125 58.804688 Z M 85.125 58.804688 "/>
<path style=" stroke:none;fill-rule:nonzero;fill:rgb(100%,0%,0%);fill-opacity:1;" d="M 125.125 58.804688 C 125.125 58.804688 122.125 50 122.125 50 C 122.125 50 119.125 58.804688 119.125 58.804688 C 119.125 58.804688 110 57 110 57 C 110 57 116.125 64 116.125 64 C 116.125 64 110 71 110 71 C 110 71 119.125 69.195312 119.125 69.195312 C 119.125 69.195312 122.125 78 122.125 78 C 122.125 78 125.125 69.195312 125.125 69.195312 C 125.125 69.195312 134.25 71 134.25 71 C 134.25 71 128.125 64 128.125 64 C 128.125 64 134.25 57 134.25 57 C 134.25 57 125.125 58.804688 125.125 58.804688 Z M 125.125 58.804688 "/>
<path style=" stroke:none;fill-rule:nonzero;fill:rgb(100%,0%,0%);fill-opacity:1;" d="M 165.125 58.804688 C 165.125 58.804688 162.125 50 162.125 50 C 162.125 50 159.125 58.804688 159.125 58.804688 C 159.125 58.804688 150 57 150 57 C 150 57 156.125 64 156.125 64 C 156.125 64 150 71 150 71 C 150 71 159.125 69.195312 159.125 69.195312 C 159.125 69.195312 162.125 78 162.125 78 C 162.125 78 165.125 69.195312 165.125 69.195312 C 165.125 69.195312 174.25 71 174.25 71 C 174.25 71 168.125 64 168.125 64 C 168.125 64 174.25 57 174.25 57 C 174.25 57 165.125 58.804688 165.125 58.804688 Z M 165.125 58.804688 "/>
</g>
</svg>
