<?xml version="1.0" encoding="UTF-8"?>
<svg xmlns="http://www.w3.org/2000/svg" xmlns:xlink="http://www.w3.org/1999/xlink" width="80pt" height="69pt" viewBox="0 0 80 69" version="1.1">
<g id="surface6177">
<path style=" stroke:none;fill-rule:nonzero;fill:rgb(100%,0%,0%);fill-opacity:1;" d="M 20 69.28125 C 20 69.28125 60 69.28125 60 69.28125 C 60 69.28125 80 34.640625 80 34.640625 C 80 34.640625 60 0 60 0 C 60 0 20 0 20 0 C 20 0 0 34.640625 0 34.640625 C 0 34.640625 20 69.28125 20 69.28125 Z M 20 69.28125 "/>
<path style=" stroke:none;fill-rule:nonzero;fill:rgb(0%,0%,100%);fill-opacity:1;" d="M 25 60.621094 C 25 60.621094 55 60.621094 55 60.621094 C 55 60.621094 70 34.640625 70 34.640625 C 70 34.640625 55 8.660156 55 8.660156 C 55 8.660156 25 8.660156 25 8.660156 C 25 8.660156 10 34.640625 10 34.640625 C 10 34.640625 25 60.621094 25 60.621094 Z M 25 60.621094 "/>
<path style=" stroke:none;fill-rule:nonzero;fill:rgb(0%,100%,0%);fill-opacity:1;" d="M 30 51.960938 C 30 51.960938 50 51.960938 50 51.960938 C 50 51.960938 60 34.640625 60 34.640625 C 60 34.640625 50 17.320312 50 17.320312 C 50 17.320312 30 17.320312 30 17.320312 C 30 17.320312 20 34.640625 20 34.640625 C 20 34.640625 30 51.960938 30 51.960938 Z M 30 51.960938 "/>
<path style=" stroke:none;fill-rule:nonzero;fill:rgb(0%,0%,0%);fill-opacity:1;" d="M 35 43.300781 C 35 43.300781 45 43.300781 45 43.300781 C 45 43.300781 50 34.640625 50 34.640625 C 50 34.640625 45 25.980469 45 25.980469 C 45 25.980469 35 25.980469 35 25.980469 C 35 25.980469 30 34.640625 30 34.640625 C 30 34.640625 35 43.300781 35 43.300781 Z M 35 43.300781 "/>
</g>
</svg>
