<?xml version="1.0" encoding="UTF-8"?>
<svg xmlns="http://www.w3.org/2000/svg" xmlns:xlink="http://www.w3.org/1999/xlink" width="40pt" height="40pt" viewBox="0 0 40 40" version="1.1">
<g id="surface2387">
<path style=" stroke:none;fill-rule:nonzero;fill:rgb(100%,0%,0%);fill-opacity:1;" d="M 0 0 C 0 0 40 0 40 0 C 40 0 40 40 40 40 C 40 40 0 40 0 40 C 0 40 0 0 0 0 Z M 0 0 "/>
<path style=" stroke:none;fill-rule:nonzero;fill:rgb(0%,0%,100%);fill-opacity:1;" d="M 5 5 C 5 5 35 5 35 5 C 35 5 35 35 35 35 C 35 35 5 35 5 35 C 5 35 5 5 5 5 Z M 5 5 "/>
<path style=" stroke:none;fill-rule:nonzero;fill:rgb(0%,100%,0%);fill-opacity:1;" d="M 10 10 C 10 10 30 10 30 10 C 30 10 30 30 30 30 C 30 30 10 30 10 30 C 10 30 10 10 10 10 Z M 10 10 "/>
<path style=" stroke:none;fill-rule:nonzero;fill:rgb(0%,0%,0%);fill-opacity:1;" d="M 15 15 C 15 15 25 15 25 15 C 25 15 25 25 25 25 C 25 25 15 25 15 25 C 15 25 15 15 15 15 Z M 15 15 "/>
</g>
</svg>
