<?xml version="1.0" encoding="UTF-8"?>
<svg xmlns="http://www.w3.org/2000/svg" xmlns:xlink="http://www.w3.org/1999/xlink" width="300pt" height="87pt" viewBox="0 0 300 87" version="1.1">
<g id="surface6167">
<path style=" stroke:none;fill-rule:nonzero;fill:rgb(0%,0%,100%);fill-opacity:1;" d="M 225 86.601562 C 225 86.601562 275 86.601562 275 86.601562 C 275 86.601562 300 43.300781 300 43.300781 C 300 43.300781 275 0 275 0 C 275 0 225 0 225 0 C 225 0 200 43.300781 200 43.300781 C 200 43.300781 225 86.601562 225 86.601562 Z M 225 86.601562 "/>
<path style=" stroke:none;fill-rule:nonzero;fill:rgb(0%,100%,0%);fill-opacity:1;" d="M 125 86.601562 C 125 86.601562 175 86.601562 175 86.601562 C 175 86.601562 200 43.300781 200 43.300781 C 200 43.300781 175 0 175 0 C 175 0 125 0 125 0 C 125 0 100 43.300781 100 43.300781 C 100 43.300781 125 86.601562 125 86.601562 Z M 125 86.601562 "/>
<path style=" stroke:none;fill-rule:nonzero;fill:rgb(100%,0%,0%);fill-opacity:1;" d="M 25 86.601562 C 25 86.601562 75 86.601562 75 86.601562 C 75 86.601562 100 43.300781 100 43.300781 C 100 43.300781 75 0 75 0 C 75 0 25 0 25 0 C 25 0 0 43.300781 0 43.300781 C 0 43.300781 25 86.601562 25 86.601562 Z M 25 86.601562 "/>
</g>
</svg>
