<?xml version="1.0" encoding="UTF-8"?>
<svg xmlns="http://www.w3.org/2000/svg" xmlns:xlink="http://www.w3.org/1999/xlink" width="300pt" height="100pt" viewBox="0 0 300 100" version="1.1">
<g id="surface2377">
<path style=" stroke:none;fill-rule:nonzero;fill:rgb(0%,100%,0%);fill-opacity:1;" d="M 200 0 C 200 0 300 0 300 0 C 300 0 300 100 300 100 C 300 100 200 100 200 100 C 200 100 200 0 200 0 Z M 200 0 "/>
<path style=" stroke:none;fill-rule:nonzero;fill:rgb(0%,0%,100%);fill-opacity:1;" d="M 100 0 C 100 0 200 0 200 0 C 200 0 200 100 200 100 C 200 100 100 100 100 100 C 100 100 100 0 100 0 Z M 100 0 "/>
<path style=" stroke:none;fill-rule:nonzero;fill:rgb(100%,0%,0%);fill-opacity:1;" d="M 0 0 C 0 0 100 0 100 0 C 100 0 100 100 100 100 C 100 100 0 100 0 100 C 0 100 0 0 0 0 Z M 0 0 "/>
</g>
</svg>
