<?xml version="1.0" encoding="UTF-8"?>
<svg xmlns="http://www.w3.org/2000/svg" xmlns:xlink="http://www.w3.org/1999/xlink" width="200pt" height="200pt" viewBox="0 0 200 200" version="1.1">
<g id="surface1522">
<path style=" stroke:none;fill-rule:nonzero;fill:rgb(78.431373%,0%,0%);fill-opacity:1;" d="M 0 0 C 0 0 200 0 200 0 C 200 0 200 200 200 200 C 200 200 0 200 0 200 C 0 200 0 0 0 0 Z M 0 0 "/>
<path style=" stroke:none;fill-rule:nonzero;fill:rgb(58.823529%,0%,0%);fill-opacity:1;" d="M 25 25 C 25 25 175 25 175 25 C 175 25 175 175 175 175 C 175 175 25 175 25 175 C 25 175 25 25 25 25 Z M 25 25 "/>
<path style=" stroke:none;fill-rule:nonzero;fill:rgb(39.215686%,0%,0%);fill-opacity:1;" d="M 50 50 C 50 50 150 50 150 50 C 150 50 150 150 150 150 C 150 150 50 150 50 150 C 50 150 50 50 50 50 Z M 50 50 "/>
<path style=" stroke:none;fill-rule:nonzero;fill:rgb(19.607843%,0%,0%);fill-opacity:1;" d="M 75 75 C 75 75 125 75 125 75 C 125 75 125 125 125 125 C 125 125 75 125 75 125 C 75 125 75 75 75 75 Z M 75 75 "/>
</g>
</svg>
