<?xml version="1.0" encoding="UTF-8"?>
<svg xmlns="http://www.w3.org/2000/svg" xmlns:xlink="http://www.w3.org/1999/xlink" width="220pt" height="100pt" viewBox="0 0 221 101" version="1.1">
<g id="surface5092">
<path style="fill:none;stroke-width:1;stroke-linecap:round;stroke-linejoin:miter;stroke:rgb(0%,0%,0%);stroke-opacity:1;stroke-miterlimit:10;" d="M 220.5 50.5 C 220.5 77.5 197.5 100.5 170.5 100.5 C 142.5 100.5 119.5 77.5 120.5 49.5 C 120.5 22.5 142.5 0.5 170.5 0.5 C 197.5 0.5 220.5 22.5 220.5 50.5 Z M 220.5 50.5 "/>
<path style="fill:none;stroke-width:1;stroke-linecap:round;stroke-linejoin:miter;stroke:rgb(0%,0%,0%);stroke-opacity:1;stroke-miterlimit:10;" d="M 100.5 49.5 C 100.5 49.5 120.5 49.5 120.5 49.5 C 120.5 49.5 120.5 51.5 120.5 51.5 C 120.5 51.5 100.5 51.5 100.5 51.5 C 100.5 51.5 100.5 49.5 100.5 49.5 Z M 100.5 49.5 "/>
<path style="fill:none;stroke-width:1;stroke-linecap:round;stroke-linejoin:miter;stroke:rgb(0%,0%,0%);stroke-opacity:1;stroke-miterlimit:10;" d="M 100.5 50.5 C 100.5 77.5 77.5 100.5 49.5 100.5 C 22.5 100.5 -0.5 77.5 0.5 49.5 C 0.5 22.5 22.5 0.5 50.5 0.5 C 77.5 0.5 100.5 22.5 100.5 50.5 Z M 100.5 50.5 "/>
</g>
</svg>
