<?xml version="1.0" encoding="UTF-8"?>
<svg xmlns="http://www.w3.org/2000/svg" xmlns:xlink="http://www.w3.org/1999/xlink" width="57pt" height="57pt" viewBox="0 0 57 57" version="1.1">
<g id="surface2392">
<path style=" stroke:none;fill-rule:nonzero;fill:rgb(100%,0%,0%);fill-opacity:1;" d="M 0 28.285156 C 0 28.285156 28.285156 0 28.285156 0 C 28.285156 0 56.570312 28.285156 56.570312 28.285156 C 56.570312 28.285156 28.285156 56.570312 28.285156 56.570312 C 28.285156 56.570312 0 28.285156 0 28.285156 Z M 0 28.285156 "/>
<path style=" stroke:none;fill-rule:nonzero;fill:rgb(0%,0%,100%);fill-opacity:1;" d="M 7.070312 28.285156 C 7.070312 28.285156 28.285156 7.070312 28.285156 7.070312 C 28.285156 7.070312 49.496094 28.285156 49.496094 28.285156 C 49.496094 28.285156 28.285156 49.496094 28.285156 49.496094 C 28.285156 49.496094 7.070312 28.285156 7.070312 28.285156 Z M 7.070312 28.285156 "/>
<path style=" stroke:none;fill-rule:nonzero;fill:rgb(0%,100%,0%);fill-opacity:1;" d="M 14.140625 28.285156 C 14.140625 28.285156 28.285156 14.140625 28.285156 14.140625 C 28.285156 14.140625 42.425781 28.285156 42.425781 28.285156 C 42.425781 28.285156 28.285156 42.425781 28.285156 42.425781 C 28.285156 42.425781 14.140625 28.285156 14.140625 28.285156 Z M 14.140625 28.285156 "/>
<path style=" stroke:none;fill-rule:nonzero;fill:rgb(0%,0%,0%);fill-opacity:1;" d="M 21.214844 28.285156 C 21.214844 28.285156 28.285156 21.214844 28.285156 21.214844 C 28.285156 21.214844 35.355469 28.285156 35.355469 28.285156 C 35.355469 28.285156 28.285156 35.355469 28.285156 35.355469 C 28.285156 35.355469 21.214844 28.285156 21.214844 28.285156 Z M 21.214844 28.285156 "/>
</g>
</svg>
